<svg width="18" height="18" viewBox="0 0 18 18" fill="none" xmlns="http://www.w3.org/2000/svg">
<path d="M17.8717 4.43517C17.7713 4.31982 17.6261 4.25391 17.4736 4.25391H4.10245L3.72188 1.32659C3.5957 0.557719 2.93909 0 2.16045 0H0.52832C0.23684 0 0.000976562 0.235863 0.000976562 0.527344C0.000976562 0.818824 0.23684 1.05469 0.52832 1.05469H2.16045C2.42001 1.05469 2.63886 1.24059 2.67851 1.48057L3.1147 4.83015C3.11624 4.84407 3.11779 4.85743 3.12036 4.87083L4.10346 12.3707C4.13011 12.5333 4.19276 12.6803 4.26406 12.8209C3.64686 13.0367 3.20016 13.6186 3.20016 14.3086C3.20016 15.181 3.90982 15.8836 4.78219 15.8836H5.40667C5.34757 16.0494 5.30953 16.2322 5.30953 16.418C5.30953 17.2903 6.0192 18 6.89157 18C7.76393 18 8.4736 17.2903 8.4736 16.418C8.4736 16.2322 8.43556 16.0494 8.37646 15.8836H11.77C11.7109 16.0494 11.6728 16.2322 11.6728 16.418C11.6728 17.2903 12.3825 18 13.2548 18C14.1272 18 14.8369 17.2903 14.8369 16.418C14.8369 16.2322 14.7988 16.0564 14.7397 15.8906H16.4189C16.7104 15.8906 16.9463 15.6548 16.9463 15.3633C16.9463 15.0718 16.7104 14.8359 16.4189 14.8359H4.78219C4.49124 14.8359 4.25485 14.5995 4.25485 14.3086C4.25485 14.0176 4.49127 13.7812 4.83011 13.7792L8.03428 13.4877L15.6552 12.7981C16.3721 12.7332 16.955 12.192 17.075 11.469L17.9958 4.85437C18.0169 4.70296 17.9716 4.55052 17.8717 4.43517ZM5.71228 12.6395C5.43163 12.6704 5.18856 12.4716 5.1463 12.2162L4.51919 7.41797H6.40764L6.84319 12.5367L5.71228 12.6395ZM10.0908 12.2447L8.13128 12.4196H8.13114L8.10038 12.4225L7.89324 12.4413L7.46588 7.41797H10.0908V12.2447ZM13.2948 11.9535L11.1455 12.1489V7.41797H13.7291L13.2948 11.9535ZM16.0327 11.3093C15.9931 11.5457 15.7989 11.7259 15.5599 11.7476L14.3634 11.8563L14.7883 7.41797H16.5724L16.0327 11.3093Z" fill="black"/>
</svg>
